<svg xmlns="http://www.w3.org/2000/svg" width="2048" height="2048" viewBox="0 0 2048 2048"><g fill="#FFF" fill-rule="evenodd"><circle cx="508.089" cy="273.585" r="1.485" fill-opacity=".246"/><circle cx="1236.793" cy="84.838" r="1.212" fill-opacity=".297"/><circle cx="595.726" cy="723.231" r="1.256" fill-opacity=".527"/><circle cx="1738.312" cy="1605.485" r=".815" fill-opacity=".255"/><circle cx="1730.09" cy="744.174" r="2.932" fill-opacity=".557"/><circle cx="1003.85" cy="1546.746" r="1.592" fill-opacity=".329"/><circle cx="1927.673" cy="1187.356" r="1.162" fill-opacity=".586"/><circle cx="923.703" cy="1823.468" r="1.592" fill-opacity=".549"/><circle cx="1268.056" cy="501.278" r="3.233" fill-opacity=".591"/><circle cx="1106.086" cy="1012.454" r="3.442" fill-opacity=".142"/><circle cx="48.589" cy="1714.249" r="1.687" fill-opacity=".474"/><circle cx="1391.283" cy="464.411" r="1.423" fill-opacity=".26"/><circle cx="2036.804" cy="1656.852" r="1.37" fill-opacity=".422"/><circle cx="1424.111" cy="154.06" r="4.728" fill-opacity=".45"/><circle cx="586.165" cy="393.957" r="4.55" fill-opacity=".429"/><circle cx="2001.384" cy="757.634" r="1.918" fill-opacity=".447"/><circle cx="1139.067" cy="1426.026" r="3.924" fill-opacity=".399"/><circle cx="1427.583" cy="1610.56" r="2.243" fill-opacity=".306"/><circle cx="1891.769" cy="328.925" r="3.162" fill-opacity=".392"/><circle cx="672.512" cy="1218.876" r="1.543" fill-opacity=".105"/><circle cx="2039.073" cy="964.639" r=".612" fill-opacity=".263"/><circle cx="953.843" cy="1359.552" r="1.382" fill-opacity=".477"/><circle cx="1347.897" cy="570.832" r=".912" fill-opacity=".586"/><circle cx="1166.697" cy="875.327" r="2.852" fill-opacity=".248"/><circle cx="1359.28" cy="1712.013" r="2.975" fill-opacity=".529"/><circle cx="923.064" cy="1578.848" r="3.568" fill-opacity=".584"/><circle cx="364.619" cy="1145.994" r="2.284" fill-opacity=".446"/><circle cx="1208.087" cy="1480.003" r="4.455" fill-opacity=".174"/><circle cx="1496.625" cy="705.643" r=".279" fill-opacity=".192"/><circle cx="672.978" cy="1859.061" r="2.664" fill-opacity=".525"/><circle cx="1058.972" cy="704.503" r="3.833" fill-opacity=".115"/><circle cx="688.19" cy="1286.042" r="2.196" fill-opacity=".174"/><circle cx="1451.781" cy="1137.885" r=".571" fill-opacity=".588"/><circle cx="258.942" cy="153.505" r=".438" fill-opacity=".102"/><circle cx="5.343" cy="843.147" r="2.91" fill-opacity=".385"/><circle cx="686.053" cy="1678.808" r="4.288" fill-opacity=".448"/><circle cx="1614.624" cy="347.899" r="2.822" fill-opacity=".495"/><circle cx="448.87" cy="94.32" r="3.111" fill-opacity=".484"/><circle cx="1090.831" cy="471.504" r="1.788" fill-opacity=".148"/><circle cx="119.079" cy="1959.27" r="2.443" fill-opacity=".322"/><circle cx="737.628" cy="376.57" r="3.533" fill-opacity=".34"/><circle cx="855.523" cy="785.988" r="2.707" fill-opacity=".413"/><circle cx="197.239" cy="426.445" r="3.204" fill-opacity=".412"/><circle cx="197.257" cy="1607.385" r="3.009" fill-opacity=".322"/><circle cx="792.363" cy="688.432" r=".294" fill-opacity=".186"/><circle cx="1780.129" cy="720.755" r="1.099" fill-opacity=".254"/><circle cx="1441.114" cy="1347.092" r="3.985" fill-opacity=".282"/><circle cx="1941.587" cy="1643.97" r="2.972" fill-opacity=".413"/><circle cx="1391.31" cy="1521.7" r=".75" fill-opacity=".461"/><circle cx="1217.688" cy="1255.092" r="4.181" fill-opacity=".215"/><circle cx="1518.636" cy="364.55" r="1.505" fill-opacity=".556"/><circle cx="309.286" cy="1736.609" r="2.119" fill-opacity=".102"/><circle cx="277.437" cy="1497.937" r="2.381" fill-opacity=".532"/><circle cx="598.671" cy="1216.426" r="4.044" fill-opacity=".268"/><circle cx="767.464" cy="1517.194" r="1.348" fill-opacity=".482"/><circle cx="535.449" cy="472.953" r=".87" fill-opacity=".343"/><circle cx="1356.584" cy="735.269" r="4.288" fill-opacity=".4"/><circle cx="1075.964" cy="1152.014" r="3.932" fill-opacity=".152"/><circle cx="1486.684" cy="544.495" r="1.594" fill-opacity=".462"/><circle cx="1205.485" cy="1607.33" r="2.377" fill-opacity=".327"/><circle cx="54.703" cy="471.128" r="1.376" fill-opacity=".461"/><circle cx="1144.161" cy="1244.761" r="2.297" fill-opacity=".581"/><circle cx="1593.286" cy="510.641" r="4.722" fill-opacity=".325"/><circle cx="1835.854" cy="1515.491" r="4.491" fill-opacity=".102"/><circle cx="817.421" cy="572.386" r="1.385" fill-opacity=".552"/><circle cx="927.271" cy="1965.958" r="3.525" fill-opacity=".536"/><circle cx="1119.229" cy="983.287" r="4.548" fill-opacity=".303"/><circle cx="140.194" cy="1967.221" r="4.585" fill-opacity=".589"/><circle cx="1793.179" cy="1796.562" r=".787" fill-opacity=".286"/><circle cx="667.688" cy="1497.447" r=".778" fill-opacity=".312"/><circle cx="1858.282" cy="737.442" r="1.075" fill-opacity=".278"/><circle cx="1139.133" cy="2011.927" r="2.827" fill-opacity=".547"/><circle cx="1895.726" cy="1473.016" r="2.468" fill-opacity=".261"/><circle cx="342.05" cy="1145.552" r="2.328" fill-opacity=".55"/><circle cx="686.148" cy="1137.971" r=".252" fill-opacity=".37"/><circle cx="637.162" cy="1373.286" r="4.189" fill-opacity=".489"/><circle cx="1245.719" cy="263.61" r=".983" fill-opacity=".466"/><circle cx="69.362" cy="1739.815" r="2.162" fill-opacity=".432"/><circle cx="844.067" cy="1582.377" r="1.2" fill-opacity=".38"/><circle cx="1766.908" cy="1811.945" r=".816" fill-opacity=".579"/><circle cx="1659.801" cy="424.026" r="1.635" fill-opacity=".471"/><circle cx="1099.194" cy="155.555" r="4.551" fill-opacity=".465"/><circle cx="1895.401" cy="1087.192" r="1.733" fill-opacity=".233"/><circle cx="1327.309" cy="1316.211" r="3.528" fill-opacity=".297"/><circle cx="292.085" cy="1977.367" r="1.885" fill-opacity=".262"/><circle cx="1573.426" cy="833.568" r="4.557" fill-opacity=".47"/><circle cx="1073.915" cy="1238.087" r=".903" fill-opacity=".315"/><circle cx="1833.957" cy="1325.572" r="1.164" fill-opacity=".131"/><circle cx="94.133" cy="983.433" r="3.497" fill-opacity=".541"/><circle cx="1876.805" cy="807.77" r="4.215" fill-opacity=".403"/><circle cx="1293.049" cy="152.524" r=".516" fill-opacity=".386"/><circle cx="1325.817" cy="735.404" r="1.09" fill-opacity=".293"/><circle cx="1889.127" cy="87.548" r="1.349" fill-opacity=".191"/><circle cx="2035.261" cy="968.318" r="2.969" fill-opacity=".238"/><circle cx="1864.386" cy="1740.57" r="4.526" fill-opacity=".202"/><circle cx="423.514" cy="242.439" r="4.436" fill-opacity=".355"/><circle cx="501.578" cy="47.345" r="2.899" fill-opacity=".508"/><circle cx="1595.652" cy="1290.788" r=".792" fill-opacity=".265"/><circle cx="1380.532" cy="1926.007" r="2.886" fill-opacity=".35"/><circle cx="61.702" cy="497.919" r="4.122" fill-opacity=".463"/><circle cx="1516.549" cy="810.087" r="1.306" fill-opacity=".491"/><circle cx="356.252" cy="1926.934" r="1.355" fill-opacity=".31"/><circle cx="431.885" cy="1616.585" r="2.028" fill-opacity=".376"/><circle cx="1098.056" cy="1850.726" r="1.435" fill-opacity=".104"/><circle cx="974.238" cy="1080.7" r="1.569" fill-opacity=".234"/><circle cx="1577.306" cy="592.534" r="1.543" fill-opacity=".114"/><circle cx="225.665" cy="755.2" r="2.875" fill-opacity=".448"/><circle cx="468.779" cy="913.163" r="1.617" fill-opacity=".401"/><circle cx="1183.72" cy="1628.352" r="3.68" fill-opacity=".131"/><circle cx="1104.915" cy="1649.006" r="1.331" fill-opacity=".412"/><circle cx="1700.411" cy="1598.807" r="2.183" fill-opacity=".44"/><circle cx="531.133" cy="255.293" r="1.537" fill-opacity=".16"/><circle cx="716.947" cy="751.403" r=".263" fill-opacity=".115"/><circle cx="2032.733" cy="30.486" r=".644" fill-opacity=".436"/><circle cx="2003.434" cy="1027.974" r="2.405" fill-opacity=".268"/><circle cx="278.729" cy="101.593" r="2.458" fill-opacity=".523"/><circle cx="597.429" cy="44.506" r="1.466" fill-opacity=".253"/><circle cx="274.471" cy="1693.765" r="4.721" fill-opacity=".246"/><circle cx="108.195" cy="739.741" r="1.356" fill-opacity=".226"/><circle cx="103.719" cy="916.156" r=".459" fill-opacity=".129"/><circle cx="1756.61" cy="1104.872" r="2.201" fill-opacity=".356"/><circle cx="1168.822" cy="1179.899" r="3.951" fill-opacity=".383"/><circle cx="869.896" cy="120.158" r="3.06" fill-opacity=".501"/><circle cx="2041.536" cy="1190.423" r="4.009" fill-opacity=".446"/><circle cx="1022.592" cy="641.414" r=".644" fill-opacity=".567"/><circle cx="1658.378" cy="9.811" r="3.921" fill-opacity=".275"/><circle cx="751.83" cy=".315" r="3.58" fill-opacity=".231"/><circle cx="250.06" cy="1977.471" r="4.611" fill-opacity=".168"/><circle cx="1318.946" cy="1884.088" r="3.086" fill-opacity=".458"/><circle cx="677.41" cy="793.264" r="4.584" fill-opacity=".169"/><circle cx="1963.511" cy="839.586" r="4.491" fill-opacity=".186"/><circle cx="756.442" cy="31.123" r="3.423" fill-opacity=".5"/><circle cx="326.542" cy="49.476" r="3.659" fill-opacity=".184"/><circle cx="1000.96" cy="1404.983" r="3.862" fill-opacity=".415"/><circle cx="707.413" cy="1641.336" r="1.573" fill-opacity=".439"/><circle cx="477.325" cy="1541.378" r=".76" fill-opacity=".276"/><circle cx="381.47" cy="768.097" r="3.093" fill-opacity=".143"/><circle cx="467.399" cy="1159.445" r="3.144" fill-opacity=".393"/><circle cx="689.306" cy="610.893" r=".938" fill-opacity=".493"/><circle cx="684.168" cy="1013.21" r=".942" fill-opacity=".138"/><circle cx="336.502" cy="1880.115" r="3.468" fill-opacity=".156"/><circle cx="1405.682" cy="1940.861" r="3.571" fill-opacity=".53"/><circle cx="99.878" cy="738.423" r="1.432" fill-opacity=".116"/><circle cx="794.561" cy="590.371" r=".748" fill-opacity=".576"/><circle cx="580.237" cy="751.663" r="1.58" fill-opacity=".529"/><circle cx="11.752" cy="1866.463" r=".38" fill-opacity=".561"/><circle cx="1684.98" cy="996.662" r="4.079" fill-opacity=".572"/><circle cx="1383.829" cy="345.481" r="1.22" fill-opacity=".322"/><circle cx="961.511" cy="1942.058" r="1.07" fill-opacity=".584"/><circle cx="1917.587" cy="247.624" r="4.202" fill-opacity=".458"/><circle cx="1292.867" cy="1515.818" r="4.353" fill-opacity=".134"/><circle cx="1908.613" cy="1661.873" r="4.639" fill-opacity=".462"/><circle cx="1510.466" cy="776.156" r="4.584" fill-opacity=".522"/><circle cx="1481.017" cy="1384.137" r="2.523" fill-opacity=".325"/><circle cx="857.55" cy="1160.46" r="3.805" fill-opacity=".511"/><circle cx="1500.662" cy="1994.801" r="2.803" fill-opacity=".4"/><circle cx="1398.934" cy="208.132" r="4.347" fill-opacity=".483"/><circle cx="1568.785" cy="511.902" r="1.007" fill-opacity=".11"/><circle cx="1869.176" cy="89.356" r=".382" fill-opacity=".446"/><circle cx="1794.355" cy="294.556" r="1.353" fill-opacity=".212"/><circle cx="1022.994" cy="987.036" r=".849" fill-opacity=".542"/><circle cx="1644.927" cy="866.241" r=".472" fill-opacity=".415"/><circle cx="351.306" cy="512.076" r="1.256" fill-opacity=".245"/><circle cx="564.831" cy="142.416" r=".852" fill-opacity=".21"/><circle cx="1102.418" cy="1350.413" r="4.299" fill-opacity=".359"/><circle cx="241.947" cy="1628.822" r="3.993" fill-opacity=".176"/><circle cx="581.868" cy="1581.097" r="4.527" fill-opacity=".565"/><circle cx="1703.877" cy="657.518" r="1.598" fill-opacity=".254"/><circle cx="41.112" cy="655.443" r="2.191" fill-opacity=".437"/><circle cx="1143.866" cy="222.54" r="4.021" fill-opacity=".482"/><circle cx="430.165" cy="84.809" r=".822" fill-opacity=".114"/><circle cx="816.501" cy="1796.172" r="2.516" fill-opacity=".525"/><circle cx="1730.482" cy="89.122" r="2.563" fill-opacity=".247"/><circle cx="844.215" cy="1179.792" r="1.027" fill-opacity=".404"/><circle cx="254.473" cy="713.179" r="4.099" fill-opacity=".43"/><circle cx="326.699" cy="886.882" r=".592" fill-opacity=".205"/><circle cx="1983.407" cy="1461.929" r="3.979" fill-opacity=".593"/><circle cx="355.451" cy="938.982" r="4.498" fill-opacity=".571"/><circle cx="184.912" cy="1238.861" r="1.016" fill-opacity=".529"/><circle cx="566.574" cy="527.805" r="3.103" fill-opacity=".493"/><circle cx="1289.151" cy="501.216" r="3.113" fill-opacity=".332"/><circle cx="251.701" cy="368.058" r=".466" fill-opacity=".377"/><circle cx="576.432" cy="482.898" r="3.468" fill-opacity=".362"/><circle cx="1712.566" cy="815.925" r=".907" fill-opacity=".39"/><circle cx="957.147" cy="245.037" r="2.338" fill-opacity=".516"/><circle cx="979.412" cy="1752.298" r="2.223" fill-opacity=".207"/><circle cx="1962.138" cy="830.034" r="4.143" fill-opacity=".586"/><circle cx="22.643" cy="661.542" r="3.379" fill-opacity=".432"/><circle cx="549.052" cy="510.644" r=".446" fill-opacity=".322"/><circle cx="1750.48" cy="948.747" r=".926" fill-opacity=".542"/><circle cx="1502.079" cy="304.033" r="2.577" fill-opacity=".268"/><circle cx="661.905" cy="1957.044" r="3.716" fill-opacity=".307"/><circle cx="945.917" cy="1750.418" r="3.996" fill-opacity=".231"/><circle cx="548.821" cy="1662.291" r="2.691" fill-opacity=".44"/><circle cx="1814.105" cy="2009.433" r="1.589" fill-opacity=".59"/><circle cx="1113.825" cy="282.73" r="3.851" fill-opacity=".508"/><circle cx="671.91" cy="769.622" r="2.863" fill-opacity=".495"/><circle cx="1657.89" cy="1677.57" r="3.649" fill-opacity=".386"/><circle cx="1589.01" cy="1263.184" r="4.317" fill-opacity=".464"/><circle cx="491.361" cy="849.518" r="2.099" fill-opacity=".424"/><circle cx="1921.691" cy="754.273" r="1.693" fill-opacity=".174"/><circle cx="1396.658" cy="1251.659" r="2.915" fill-opacity=".333"/><circle cx="228.188" cy="690.314" r="2.555" fill-opacity=".157"/><circle cx="1740.21" cy="977.161" r="2.508" fill-opacity=".245"/><circle cx="1564.724" cy="1085.729" r="1.206" fill-opacity=".205"/><circle cx="5.461" cy="197.698" r=".346" fill-opacity=".278"/><circle cx="1640.728" cy="1763.682" r=".61" fill-opacity=".127"/><circle cx="1947.793" cy="962.853" r=".265" fill-opacity=".579"/><circle cx="434.158" cy="547.745" r="2.203" fill-opacity=".41"/><circle cx="1396.146" cy="1362.746" r="4.248" fill-opacity=".351"/><circle cx="337.165" cy="1884.839" r="2.162" fill-opacity=".452"/><circle cx="1676.489" cy="1773.849" r="3.858" fill-opacity=".521"/><circle cx="1458.514" cy="1812.981" r="4.164" fill-opacity=".457"/><circle cx="1770.247" cy="229.155" r="2.152" fill-opacity=".336"/><circle cx="1643.463" cy="673.908" r="2.319" fill-opacity=".345"/><circle cx="355.819" cy="2024.025" r="2.935" fill-opacity=".492"/><circle cx="1076.022" cy="998.825" r="2.111" fill-opacity=".587"/><circle cx="1554.566" cy="178.3" r="3.517" fill-opacity=".471"/><circle cx="1783.034" cy="1942.997" r="1.998" fill-opacity=".539"/><circle cx="1201.468" cy="1754.872" r="4.724" fill-opacity=".481"/><circle cx="1866.833" cy="1502.938" r="2.562" fill-opacity=".46"/><circle cx="178.796" cy="1769.649" r="1.999" fill-opacity=".392"/><circle cx="51.016" cy="1348.744" r="4.425" fill-opacity=".237"/><circle cx="534.653" cy="679.357" r=".265" fill-opacity=".183"/><circle cx="1140.117" cy="632.781" r="2.033" fill-opacity=".107"/><circle cx="1281.007" cy="622.83" r="4.429" fill-opacity=".506"/><circle cx="844.298" cy="1135.18" r="1.994" fill-opacity=".278"/><circle cx="1221.539" cy="1096.715" r="4.189" fill-opacity=".215"/><circle cx="111.997" cy="1096.061" r="2.215" fill-opacity=".178"/><circle cx="1431.286" cy="2014.515" r="3.937" fill-opacity=".272"/><circle cx="36.836" cy="696.301" r="2.685" fill-opacity=".471"/><circle cx="559.374" cy="1810.743" r="1.857" fill-opacity=".39"/><circle cx="1633.249" cy="1650.035" r="1.405" fill-opacity=".413"/><circle cx="91.853" cy="1228.221" r="4.033" fill-opacity=".131"/><circle cx="1842.55" cy="1862.95" r="1.592" fill-opacity=".198"/><circle cx="1913.319" cy="1772.811" r="1.659" fill-opacity=".154"/><circle cx="1183.606" cy="220.228" r=".968" fill-opacity=".225"/><circle cx="412.917" cy="1049.702" r="3.521" fill-opacity=".371"/><circle cx="536.686" cy="1730.898" r="2.232" fill-opacity=".304"/><circle cx="2001.817" cy="825.431" r=".656" fill-opacity=".405"/><circle cx="487.69" cy="991.158" r="3.03" fill-opacity=".278"/><circle cx="373.66" cy="531.472" r=".499" fill-opacity=".584"/><circle cx="1242.856" cy="103.542" r="1.232" fill-opacity=".304"/><circle cx="537.87" cy="271.22" r="3.048" fill-opacity=".37"/><circle cx="1668.736" cy="1658.983" r="3.382" fill-opacity=".361"/><circle cx="1568.864" cy="1277.828" r="4.339" fill-opacity=".248"/><circle cx="869.712" cy="626.477" r="2.879" fill-opacity=".395"/><circle cx="1636.084" cy="479.701" r="4.68" fill-opacity=".572"/><circle cx="1150.517" cy="1666.51" r=".726" fill-opacity=".285"/><circle cx="419.618" cy="1493.392" r=".789" fill-opacity=".577"/><circle cx="1320.953" cy="1965.057" r="4.568" fill-opacity=".518"/><circle cx="1630.924" cy="324.188" r="1.191" fill-opacity=".28"/><circle cx="1304.597" cy="796.291" r="2.043" fill-opacity=".401"/><circle cx="174.322" cy="84.247" r="3.035" fill-opacity=".55"/><circle cx="768.176" cy="1122.802" r="2.223" fill-opacity=".404"/><circle cx="1950.427" cy="1599.031" r="1.452" fill-opacity=".497"/><circle cx="2007.324" cy="572.833" r="2.956" fill-opacity=".375"/><circle cx="1631.005" cy="1397.401" r=".923" fill-opacity=".348"/><circle cx="1322.963" cy="50.68" r="4.101" fill-opacity=".168"/><circle cx="1799.303" cy="1036.618" r="3.779" fill-opacity=".446"/><circle cx="381.74" cy="1700.845" r="3.304" fill-opacity=".475"/><circle cx="1170.762" cy="268.553" r=".542" fill-opacity=".485"/><circle cx="267.106" cy="766.69" r="3.68" fill-opacity=".439"/><circle cx="2005.387" cy="495.662" r="1.72" fill-opacity=".19"/><circle cx="1488.289" cy="1818.145" r="4.454" fill-opacity=".386"/><circle cx="1880.706" cy="364.113" r="1.311" fill-opacity=".369"/><circle cx="1523.499" cy="1674.286" r="1.281" fill-opacity=".482"/><circle cx="843.324" cy="834.825" r=".36" fill-opacity=".432"/><circle cx="253.698" cy="1240.359" r="3.014" fill-opacity=".487"/><circle cx="1039.91" cy="21.529" r="2.196" fill-opacity=".326"/><circle cx="552.146" cy="719.605" r="2.952" fill-opacity=".165"/><circle cx="518.954" cy="1828.261" r="1.751" fill-opacity=".25"/><circle cx="2042.06" cy="1779.066" r="4.412" fill-opacity=".44"/><circle cx="1809.128" cy="322.209" r=".953" fill-opacity=".452"/><circle cx="728.328" cy="1807.637" r=".609" fill-opacity=".323"/><circle cx="580.044" cy="934.747" r="4.477" fill-opacity=".353"/><circle cx="1477.225" cy="1177.623" r=".732" fill-opacity=".125"/><circle cx="1914.201" cy="719.506" r="3.922" fill-opacity=".131"/><circle cx="1484.668" cy="362.424" r="2.324" fill-opacity=".189"/><circle cx="477.329" cy="465.225" r="4.354" fill-opacity=".386"/><circle cx="1082.817" cy="1850.918" r=".691" fill-opacity=".12"/><circle cx="1103.131" cy="795.657" r="1.465" fill-opacity=".334"/><circle cx="1200.238" cy="1891.433" r="1.198" fill-opacity=".378"/><circle cx="2046.924" cy="90.44" r="4.654" fill-opacity=".211"/><circle cx="389.925" cy="825.463" r="2.59" fill-opacity=".349"/><circle cx="919.012" cy="563.792" r="2.154" fill-opacity=".46"/><circle cx="1251.693" cy="1923.095" r=".512" fill-opacity=".354"/><circle cx="1163.865" cy="396.818" r="4.434" fill-opacity=".116"/><circle cx="3.307" cy="244.265" r="1.046" fill-opacity=".196"/><circle cx="1640.321" cy="749.445" r="1.309" fill-opacity=".336"/><circle cx="1830.451" cy="1308.735" r="1.572" fill-opacity=".226"/><circle cx="372.776" cy="295.582" r="3.129" fill-opacity=".104"/><circle cx="1032.295" cy="1585.836" r="2.59" fill-opacity=".455"/><circle cx="585.715" cy="1359.816" r=".747" fill-opacity=".575"/><circle cx="2010.871" cy="644.956" r="4.011" fill-opacity=".299"/><circle cx="577.471" cy="2046.977" r="2.712" fill-opacity=".454"/><circle cx="2028.793" cy="582.976" r="4.46" fill-opacity=".277"/><circle cx="1740.578" cy="285.685" r="1.088" fill-opacity=".593"/><circle cx="1609.921" cy="664.906" r="1.111" fill-opacity=".469"/><circle cx="556.489" cy="1086.292" r="2.335" fill-opacity=".129"/><circle cx="1803.971" cy="678.657" r="3.555" fill-opacity=".334"/><circle cx="903.167" cy="391.256" r="3.09" fill-opacity=".141"/><circle cx="107.537" cy="1703.494" r=".526" fill-opacity=".474"/><circle cx="534.246" cy="1162.488" r=".801" fill-opacity=".194"/><circle cx="1687.87" cy="1711.922" r="1.449" fill-opacity=".467"/><circle cx="630.394" cy="321.519" r="4.578" fill-opacity=".57"/><circle cx="243.259" cy="1448.4" r="2.05" fill-opacity=".177"/><circle cx="802.22" cy="876.494" r=".815" fill-opacity=".147"/><circle cx="288.867" cy="988.701" r="1.643" fill-opacity=".403"/><circle cx="1794.495" cy="1314.506" r="1.905" fill-opacity=".484"/><circle cx="1873.421" cy="93.99" r="1.873" fill-opacity=".364"/><circle cx="1750.196" cy="1485.016" r="2.451" fill-opacity=".103"/><circle cx="2031.398" cy="1472.21" r="4.047" fill-opacity=".371"/><circle cx="435.117" cy="939.759" r="1.011" fill-opacity=".288"/><circle cx="1682.707" cy="114.173" r=".397" fill-opacity=".454"/><circle cx="2015.339" cy="2027.166" r="2.043" fill-opacity=".371"/><circle cx="898.434" cy="1243.139" r="3.408" fill-opacity=".255"/><circle cx="1264.774" cy="1754.514" r=".473" fill-opacity=".299"/><circle cx="1131.457" cy="1658.168" r="2.142" fill-opacity=".375"/><circle cx="980.076" cy="106.083" r=".95" fill-opacity=".496"/><circle cx="1111.248" cy="708.446" r="1.24" fill-opacity=".258"/><circle cx="490.61" cy="301.833" r="2.94" fill-opacity=".208"/><circle cx="806.295" cy="1721.476" r="3.084" fill-opacity=".334"/><circle cx="1302.298" cy="1480.406" r=".862" fill-opacity=".394"/><circle cx="1644.359" cy="1772.502" r="4.388" fill-opacity=".368"/><circle cx="891.212" cy="813.256" r="2.467" fill-opacity=".237"/><circle cx="893.708" cy="620.769" r="2.202" fill-opacity=".248"/><circle cx="1514.868" cy="1460.163" r=".898" fill-opacity=".409"/><circle cx="1595.152" cy="69.565" r="2.818" fill-opacity=".196"/><circle cx="827.885" cy="712.58" r="1.992" fill-opacity=".499"/><circle cx="1580.343" cy="1297.129" r="3.338" fill-opacity=".39"/><circle cx="1463.292" cy="1317.755" r=".353" fill-opacity=".502"/><circle cx="1412.879" cy="271.626" r="3.978" fill-opacity=".146"/><circle cx="325.47" cy="615.393" r="2.907" fill-opacity=".5"/><circle cx="152.898" cy="859.184" r="1.637" fill-opacity=".574"/><circle cx="1277.277" cy="1393.591" r="1.794" fill-opacity=".36"/><circle cx="1797.399" cy="1408.445" r="3.77" fill-opacity=".438"/><circle cx="241.427" cy="1759.811" r="2.992" fill-opacity=".265"/><circle cx="868.773" cy="287.186" r=".742" fill-opacity=".427"/><circle cx="817.654" cy="1999.383" r="2.225" fill-opacity=".572"/><circle cx="999.661" cy="1801.098" r=".282" fill-opacity=".247"/><circle cx="136.852" cy="1328.88" r="2.282" fill-opacity=".302"/><circle cx="459.437" cy="172.17" r="3.074" fill-opacity=".512"/><circle cx="1953.394" cy="707.447" r="2.734" fill-opacity=".561"/><circle cx="1510.862" cy="1495.176" r="4.447" fill-opacity=".436"/><circle cx="1356.635" cy="1219.048" r="1" fill-opacity=".328"/><circle cx="8.187" cy="511.96" r="2.787" fill-opacity=".295"/><circle cx="911.86" cy="544.631" r="4.248" fill-opacity=".372"/><circle cx="28.012" cy="26.799" r="2.367" fill-opacity=".315"/><circle cx="191.267" cy="469.457" r="3.677" fill-opacity=".241"/><circle cx="1111.373" cy="351.024" r="4.323" fill-opacity=".551"/><circle cx="262.663" cy="535.958" r=".956" fill-opacity=".152"/><circle cx="1434.094" cy="595.096" r="1.506" fill-opacity=".381"/><circle cx="1723.803" cy="1145.327" r="3.032" fill-opacity=".246"/><circle cx="98.14" cy="52.831" r="1.635" fill-opacity=".572"/><circle cx="1390.127" cy="139.204" r="4.425" fill-opacity=".113"/><circle cx="847.889" cy="345.708" r="3.749" fill-opacity=".191"/><circle cx="1118.959" cy="366.763" r="4.297" fill-opacity=".483"/><circle cx="788.288" cy="348.045" r="2.311" fill-opacity=".3"/><circle cx="399.524" cy="348.99" r="3.338" fill-opacity=".533"/><circle cx="344.666" cy="63.664" r=".703" fill-opacity=".395"/><circle cx="1029.908" cy="452.268" r="2.404" fill-opacity=".28"/><circle cx="1131.025" cy="1273.999" r="1.201" fill-opacity=".32"/><circle cx="1848.904" cy="2032.179" r="1.265" fill-opacity=".372"/><circle cx="1928.949" cy="1819.331" r="3.184" fill-opacity=".461"/><circle cx="2.614" cy="1499.503" r="2.863" fill-opacity=".219"/><circle cx="405.317" cy="577.047" r="1.218" fill-opacity=".384"/><circle cx="1055.88" cy="282.682" r="2.084" fill-opacity=".392"/><circle cx="1299.951" cy="754.492" r="3.715" fill-opacity=".151"/><circle cx="1424.67" cy="721.712" r="1.097" fill-opacity=".28"/><circle cx="777.203" cy="1841.732" r="3.459" fill-opacity=".486"/><circle cx="872.475" cy="615.441" r="2.973" fill-opacity=".255"/><circle cx="46.373" cy="1722.707" r="1.142" fill-opacity=".46"/><circle cx="256.209" cy="336.58" r="2.822" fill-opacity=".181"/><circle cx="1101.675" cy="1744.687" r="3.308" fill-opacity=".201"/><circle cx="1564.093" cy="1642.472" r="4.64" fill-opacity=".57"/><circle cx="668.997" cy="1398.646" r="1.197" fill-opacity=".348"/><circle cx="1922.682" cy="1052.229" r=".644" fill-opacity=".191"/><circle cx="39.66" cy="609.917" r="3.455" fill-opacity=".109"/><circle cx="310.408" cy="118.402" r="2.642" fill-opacity=".193"/><circle cx="263.654" cy="209.515" r=".331" fill-opacity=".313"/><circle cx="1034.997" cy="1407.325" r="3.605" fill-opacity=".482"/><circle cx="1655.92" cy="1507.523" r="3.856" fill-opacity=".581"/><circle cx="1122.166" cy="1455.555" r="2.891" fill-opacity=".411"/><circle cx="664.756" cy="1594.089" r="2.727" fill-opacity=".498"/><circle cx="1064.629" cy="280.933" r="1.349" fill-opacity=".34"/><circle cx="1178.348" cy="956.836" r="3.791" fill-opacity=".224"/><circle cx="1291.351" cy="1723.505" r="2.04" fill-opacity=".461"/><circle cx="1476.423" cy="1499.739" r="1.052" fill-opacity=".49"/><circle cx="535.647" cy="1016.383" r="4.425" fill-opacity=".419"/><circle cx="426.19" cy="2017.935" r="3.537" fill-opacity=".179"/><circle cx="626.794" cy="1147.015" r=".855" fill-opacity=".111"/><circle cx="1672.697" cy="1850.145" r="1.209" fill-opacity=".572"/><circle cx="1728.502" cy="728.922" r="2.944" fill-opacity=".155"/><circle cx="1713.589" cy="182.336" r="2.493" fill-opacity=".587"/><circle cx="2045.86" cy="672.194" r="2.847" fill-opacity=".389"/><circle cx="710.041" cy="1435.589" r="3.32" fill-opacity=".152"/><circle cx="509.86" cy="867.116" r=".812" fill-opacity=".548"/><circle cx="639.646" cy="1824.466" r=".6" fill-opacity=".425"/><circle cx="638.666" cy="41.79" r="3.106" fill-opacity=".524"/><circle cx="1743.768" cy="697.666" r="4.243" fill-opacity=".312"/><circle cx="1315.993" cy="1352.123" r=".278" fill-opacity=".311"/><circle cx="1581.824" cy="312.555" r=".947" fill-opacity=".407"/><circle cx="1028.454" cy="839.679" r="2.013" fill-opacity=".356"/><circle cx="1704.478" cy="1451.591" r=".475" fill-opacity=".24"/><circle cx="1198.684" cy="1754.603" r="3.297" fill-opacity=".51"/><circle cx="1220.95" cy="1787.012" r=".69" fill-opacity=".216"/><circle cx="1427.274" cy="1915.859" r=".549" fill-opacity=".549"/><circle cx="759.174" cy="344.79" r="3.157" fill-opacity=".223"/><circle cx="1639.674" cy="1960.362" r="2.347" fill-opacity=".232"/><circle cx="232.521" cy="1578.282" r=".978" fill-opacity=".122"/><circle cx="449.322" cy="1937.765" r="1.754" fill-opacity=".229"/><circle cx="86.458" cy="945.625" r="2.381" fill-opacity=".161"/><circle cx="742.796" cy="1735.986" r="4.046" fill-opacity=".113"/><circle cx="46.519" cy="247.703" r="3.72" fill-opacity=".436"/><circle cx="917.99" cy="1734.469" r="1.906" fill-opacity=".569"/><circle cx="1636.919" cy="545.841" r="1.611" fill-opacity=".406"/><circle cx="314.365" cy="229.641" r="4.495" fill-opacity=".174"/><circle cx="1846.697" cy="1209.485" r="3.858" fill-opacity=".315"/><circle cx="1863.395" cy="1320.659" r="2.707" fill-opacity=".171"/><circle cx="1884.627" cy="56.962" r="1.896" fill-opacity=".265"/><circle cx="1380.068" cy="549.695" r="1.927" fill-opacity=".195"/><circle cx="1622.457" cy="1068.73" r="1.028" fill-opacity=".547"/><circle cx="179.044" cy="1683.41" r=".963" fill-opacity=".564"/><circle cx="1718.289" cy="1879.15" r="3.813" fill-opacity=".42"/><circle cx="263.534" cy="116.59" r="1.243" fill-opacity=".292"/><circle cx="465.233" cy="755.18" r="2.662" fill-opacity=".224"/><circle cx="447.931" cy="1224.53" r="1.869" fill-opacity=".593"/><circle cx="1145.216" cy="728.277" r="3.994" fill-opacity=".332"/><circle cx="565.756" cy="1863.054" r="4.473" fill-opacity=".306"/><circle cx="1776.119" cy="369.437" r="4.13" fill-opacity=".543"/><circle cx="1721.249" cy="1095.571" r="3.696" fill-opacity=".37"/><circle cx="188.338" cy="149.503" r="1.547" fill-opacity=".133"/><circle cx="383.27" cy="1507.567" r="3.751" fill-opacity=".329"/><circle cx="409.215" cy="891.858" r="1.543" fill-opacity=".571"/><circle cx="135.935" cy="977.485" r="1.44" fill-opacity=".31"/><circle cx="1637.018" cy="298.588" r="3.87" fill-opacity=".584"/><circle cx="54.472" cy="1494.589" r="2.015" fill-opacity=".425"/><circle cx="1319.988" cy="1515.729" r="2.56" fill-opacity=".415"/><circle cx="522.666" cy="482.078" r="4.584" fill-opacity=".501"/><circle cx="316.789" cy="934.23" r=".36" fill-opacity=".463"/><circle cx="234.439" cy="940.486" r="3.834" fill-opacity=".278"/><circle cx="1649.84" cy="1577.178" r="2.131" fill-opacity=".358"/><circle cx="1355.597" cy="1594.018" r="1.548" fill-opacity=".279"/><circle cx="420.296" cy="103.324" r="3.867" fill-opacity=".504"/><circle cx="574.53" cy="42.273" r="4.171" fill-opacity=".552"/><circle cx="422.541" cy="934.212" r="3.28" fill-opacity=".547"/><circle cx="1368.533" cy="719.886" r=".84" fill-opacity=".488"/><circle cx="221.574" cy="1901.222" r="3.333" fill-opacity=".534"/><circle cx="784.496" cy="1761.301" r="1.742" fill-opacity=".596"/><circle cx="159.63" cy="1985.662" r="1.595" fill-opacity=".428"/><circle cx="1933.917" cy="1459.637" r="4.06" fill-opacity=".332"/><circle cx="930.714" cy="1411.39" r="3.888" fill-opacity=".364"/><circle cx="412.873" cy="310.486" r=".615" fill-opacity=".342"/><circle cx="185.528" cy="2043.077" r="3.693" fill-opacity=".373"/><circle cx="1623.555" cy="1970.421" r="2.18" fill-opacity=".312"/><circle cx="636.272" cy="1802.089" r="1.81" fill-opacity=".422"/><circle cx="346.655" cy="1631.738" r=".524" fill-opacity=".113"/><circle cx="1400.897" cy="844.555" r="4.568" fill-opacity=".571"/><circle cx="256.82" cy="2025.573" r="3.685" fill-opacity=".336"/><circle cx="1827.248" cy="1665.301" r="4.538" fill-opacity=".471"/><circle cx="105.21" cy="1535.251" r="2.583" fill-opacity=".296"/><circle cx="1654.96" cy="1152.336" r="2.563" fill-opacity=".311"/><circle cx="1390.473" cy="748.37" r="4.399" fill-opacity=".135"/><circle cx="819.841" cy="1304.187" r=".352" fill-opacity=".537"/><circle cx="135.311" cy="933.28" r="4.61" fill-opacity=".314"/><circle cx="1761.889" cy="1975.357" r="2.932" fill-opacity=".438"/><circle cx="602.944" cy="1328.305" r=".98" fill-opacity=".128"/><circle cx="1041.19" cy="20.975" r="1.432" fill-opacity=".289"/><circle cx="565.541" cy="567.386" r="3.648" fill-opacity=".181"/><circle cx="1579.454" cy="820.519" r="1.359" fill-opacity=".452"/><circle cx="191.622" cy="901.604" r="3.803" fill-opacity=".297"/><circle cx="1119.795" cy="1194.981" r="1.868" fill-opacity=".524"/><circle cx="507.586" cy="880.975" r="1.433" fill-opacity=".316"/><circle cx="522.023" cy="572.497" r="1.114" fill-opacity=".372"/><circle cx="580.444" cy="799.605" r="3.176" fill-opacity=".135"/><circle cx="256.579" cy="58.814" r="2.195" fill-opacity=".123"/><circle cx="502.173" cy="773.468" r="1.315" fill-opacity=".461"/><circle cx="1619.991" cy="1843.093" r=".922" fill-opacity=".155"/><circle cx="367.914" cy="28.799" r=".893" fill-opacity=".385"/><circle cx="1008.983" cy="483.111" r="2.015" fill-opacity=".213"/><circle cx="1846.39" cy="1467.567" r="2.79" fill-opacity=".276"/><circle cx="907.022" cy="1773.498" r="3.809" fill-opacity=".541"/><circle cx="2005.391" cy="968.183" r="3.663" fill-opacity=".586"/><circle cx="561.193" cy="745.086" r="2.523" fill-opacity=".428"/><circle cx="177.372" cy="903.741" r="3.861" fill-opacity=".385"/><circle cx="820.354" cy="408.728" r="1.368" fill-opacity=".107"/><circle cx="367.188" cy="198.015" r="1.068" fill-opacity=".17"/><circle cx="368.723" cy="735.364" r=".785" fill-opacity=".597"/><circle cx="1714.06" cy="666.62" r=".351" fill-opacity=".241"/><circle cx="272.593" cy="561.636" r=".601" fill-opacity=".305"/><circle cx="2019.295" cy="1986.617" r="2.408" fill-opacity=".485"/><circle cx="1059.152" cy="951.578" r="1.975" fill-opacity=".418"/><circle cx="1643.615" cy="1468.832" r="3.793" fill-opacity=".297"/><circle cx="1568.525" cy="877.009" r="2.848" fill-opacity=".339"/><circle cx="1127.971" cy="1579.089" r="2.56" fill-opacity=".351"/><circle cx="1594.5" cy="979.08" r="2.17" fill-opacity=".131"/><circle cx="63.588" cy="176.746" r="1.509" fill-opacity=".25"/><circle cx="20.043" cy="90.143" r=".545" fill-opacity=".259"/><circle cx="105.052" cy="1110.232" r="1.024" fill-opacity=".2"/><circle cx="1586.737" cy="49.625" r=".317" fill-opacity=".457"/><circle cx="1270.432" cy="1700.637" r="3.622" fill-opacity=".465"/><circle cx="215.821" cy="591.775" r="2.446" fill-opacity=".22"/><circle cx="1508.764" cy="973.298" r="1.427" fill-opacity=".312"/><circle cx="1159.005" cy="1480.43" r=".939" fill-opacity=".348"/><circle cx="1566.999" cy="1429.663" r="3.049" fill-opacity=".477"/><circle cx="1621.787" cy="104.839" r="2.167" fill-opacity=".409"/><circle cx="1596.956" cy="1328" r=".37" fill-opacity=".377"/><circle cx="1642.002" cy="991.163" r="2.478" fill-opacity=".315"/><circle cx="1979.558" cy="446.643" r=".261" fill-opacity=".536"/><circle cx="331.146" cy="469.922" r="2.736" fill-opacity=".554"/><circle cx="1783.518" cy="1601.736" r="4.238" fill-opacity=".351"/><circle cx="1881.391" cy="984.712" r="3.496" fill-opacity=".198"/><circle cx="415.339" cy="1195.81" r="1.001" fill-opacity=".518"/><circle cx="703.641" cy="822.691" r="3.779" fill-opacity=".111"/><circle cx="555.483" cy="1842.864" r="2.648" fill-opacity=".14"/><circle cx="465.835" cy="566.103" r="2.977" fill-opacity=".283"/><circle cx="1138.258" cy="897.618" r="4.465" fill-opacity=".563"/><circle cx="1995.535" cy="1397.258" r="2.958" fill-opacity=".141"/><circle cx="3.246" cy="494.807" r="1.154" fill-opacity=".555"/><circle cx="655.369" cy="1304.512" r="3.412" fill-opacity=".321"/><circle cx="1370.735" cy="1124.993" r="3.888" fill-opacity=".296"/><circle cx="83.278" cy="1525.531" r="1.596" fill-opacity=".245"/><circle cx="573.681" cy="622.02" r="4.394" fill-opacity=".233"/><circle cx="680.958" cy="1082.835" r=".619" fill-opacity=".302"/><circle cx="103.654" cy="137.529" r="2.722" fill-opacity=".421"/><circle cx="1234.272" cy="768.02" r=".796" fill-opacity=".104"/><circle cx="1736.562" cy="1033.554" r="3.457" fill-opacity=".378"/><circle cx="1184.128" cy="1505.063" r=".307" fill-opacity=".15"/><circle cx="164.496" cy="948.198" r=".456" fill-opacity=".131"/><circle cx="1824.884" cy="1171.989" r="2.189" fill-opacity=".508"/><circle cx="1725.096" cy="45.536" r="3.82" fill-opacity=".504"/><circle cx="230.166" cy="955.72" r="1.212" fill-opacity=".431"/><circle cx="1751.995" cy="159.861" r=".464" fill-opacity=".416"/><circle cx="1910.805" cy="1530.169" r="2.039" fill-opacity=".377"/><circle cx="1831.104" cy="84.655" r="3.052" fill-opacity=".23"/><circle cx="501.137" cy="829.009" r="4.029" fill-opacity=".569"/><circle cx="506.721" cy="1460.325" r=".688" fill-opacity=".599"/><circle cx="583.258" cy="833.089" r="1.789" fill-opacity=".273"/><circle cx="180.58" cy="1953.892" r=".438" fill-opacity=".125"/><circle cx="147.538" cy="520.431" r="3.812" fill-opacity=".28"/><circle cx="1174.825" cy="1623.851" r=".346" fill-opacity=".188"/><circle cx="296.359" cy="1813.005" r="3.373" fill-opacity=".126"/><circle cx="71.959" cy="293.29" r="1.172" fill-opacity=".584"/><circle cx="1013.327" cy="432.861" r="1.836" fill-opacity=".453"/><circle cx="95.976" cy="38.935" r="1.725" fill-opacity=".452"/><circle cx="57.9" cy="1326.795" r="1.631" fill-opacity=".581"/><circle cx="123.738" cy="943.797" r="1.603" fill-opacity=".502"/><circle cx="1081.193" cy="487.45" r="2.175" fill-opacity=".174"/><circle cx="626.619" cy="962.978" r="1.647" fill-opacity=".254"/><circle cx="645.54" cy="1562.322" r="4.542" fill-opacity=".563"/><circle cx="686.01" cy="1222.855" r=".639" fill-opacity=".159"/><circle cx="1572.56" cy="1727.888" r="3.127" fill-opacity=".386"/><circle cx="1221.453" cy="1798.558" r="4.73" fill-opacity=".425"/><circle cx="1051.71" cy="474.919" r=".946" fill-opacity=".261"/><circle cx="1115.583" cy="386.731" r="1.963" fill-opacity=".463"/><circle cx="349.013" cy="4.856" r="4.032" fill-opacity=".34"/><circle cx="1003.23" cy="1440.861" r="2.781" fill-opacity=".14"/><circle cx="1145.584" cy="789.415" r="1.15" fill-opacity=".197"/><circle cx="1335.066" cy="1079.126" r="2.173" fill-opacity=".347"/><circle cx="1780.095" cy="2042.229" r="3.445" fill-opacity=".365"/><circle cx="1067.851" cy="737.276" r=".308" fill-opacity=".462"/><circle cx="1243.069" cy="543.121" r="3.699" fill-opacity=".196"/><circle cx="83.682" cy="812.741" r="3.696" fill-opacity=".402"/><circle cx="1371.897" cy="505.577" r="2.976" fill-opacity=".212"/><circle cx="1328.464" cy="1457.514" r="1.388" fill-opacity=".53"/><circle cx="1047.449" cy="733.525" r="2.038" fill-opacity=".585"/><circle cx="755.199" cy="1489.162" r="2.359" fill-opacity=".406"/><circle cx="1761.323" cy="1201.449" r="3.584" fill-opacity=".495"/><circle cx="1190.777" cy="1764.542" r="3.104" fill-opacity=".535"/><circle cx="1934.01" cy="410.78" r="4.525" fill-opacity=".456"/><circle cx="1249.908" cy="736.996" r=".309" fill-opacity=".458"/><circle cx="1110.662" cy="649.193" r="2.368" fill-opacity=".211"/><circle cx="1374.054" cy="604.742" r="1.158" fill-opacity=".338"/><circle cx="372.628" cy="1848.32" r="1.416" fill-opacity=".569"/><circle cx="1160.737" cy="900.334" r="1.51" fill-opacity=".539"/><circle cx="1215.695" cy="1576.94" r=".389" fill-opacity=".372"/><circle cx="454.178" cy="983.894" r="2.58" fill-opacity=".382"/><circle cx="1213.018" cy="296.022" r="4.611" fill-opacity=".141"/><circle cx="731.223" cy="1965.01" r="2.209" fill-opacity=".333"/><circle cx="973.963" cy="901.345" r=".552" fill-opacity=".461"/><circle cx="429.22" cy="816.472" r="3.136" fill-opacity=".514"/><circle cx="2047.562" cy="494.705" r="4.227" fill-opacity=".436"/><circle cx="349.407" cy="134.654" r="3.066" fill-opacity=".542"/><circle cx="1163.589" cy="679.899" r="1.606" fill-opacity=".433"/><circle cx="197.513" cy="1945.012" r="1.411" fill-opacity=".128"/><circle cx="1591.413" cy="770.618" r="1.614" fill-opacity=".499"/><circle cx="248.641" cy="1180.33" r="1.408" fill-opacity=".485"/><circle cx="856.395" cy="90.26" r="3.436" fill-opacity=".269"/><circle cx="1565.076" cy="705.267" r="2.604" fill-opacity=".273"/><circle cx="40.667" cy="1395.346" r="4.735" fill-opacity=".19"/><circle cx="971.941" cy="1504.983" r="3.816" fill-opacity=".259"/><circle cx="1730.084" cy="711.378" r="1.861" fill-opacity=".131"/><circle cx="557.484" cy="627.005" r="4.34" fill-opacity=".566"/><circle cx="919.722" cy="1324.082" r=".563" fill-opacity=".133"/><circle cx="904.768" cy="1641.101" r=".753" fill-opacity=".231"/><circle cx="2021.815" cy="1302.887" r="2.2" fill-opacity=".362"/><circle cx="1589.533" cy="346.335" r="2.291" fill-opacity=".224"/><circle cx="253.346" cy="936.129" r="3.598" fill-opacity=".181"/><circle cx="1353.088" cy="1803.627" r=".363" fill-opacity=".369"/></g></svg>