<svg xmlns="http://www.w3.org/2000/svg" width="2048" height="2048" viewBox="0 0 2048 2048"><g fill="#FFF" fill-rule="evenodd"><circle cx="1414.674" cy="1387.074" r="2.094" fill-opacity=".473"/><circle cx="1185.413" cy="808.03" r=".63" fill-opacity=".296"/><circle cx="1114.137" cy="389.629" r=".279" fill-opacity=".313"/><circle cx="522.263" cy="1943.893" r="3.489" fill-opacity=".136"/><circle cx="916.126" cy="117.492" r="2.548" fill-opacity=".428"/><circle cx="1346.166" cy="247.941" r=".879" fill-opacity=".488"/><circle cx="1124.686" cy="1331.057" r="2.61" fill-opacity=".372"/><circle cx="1467.33" cy="2017.822" r="1.721" fill-opacity=".274"/><circle cx="1751.13" cy="504.143" r="1.252" fill-opacity=".575"/><circle cx="1913.375" cy="1118.926" r="4.658" fill-opacity=".191"/><circle cx="201.29" cy="923.482" r="2.008" fill-opacity=".145"/><circle cx="438.768" cy="169.894" r="1.943" fill-opacity=".469"/><circle cx="304.319" cy="1221.33" r=".475" fill-opacity=".429"/><circle cx="1391.955" cy="574.385" r="2.042" fill-opacity=".301"/><circle cx="1264.258" cy="143.962" r="4.717" fill-opacity=".248"/><circle cx="1704.36" cy="1813.819" r=".419" fill-opacity=".34"/><circle cx="1643.266" cy="1604.816" r="3.633" fill-opacity=".492"/><circle cx="1261.911" cy="929.593" r="1.42" fill-opacity=".368"/><circle cx="1996.027" cy="1094.523" r="1.571" fill-opacity=".418"/><circle cx="1118.917" cy="1410.948" r="1.661" fill-opacity=".141"/><circle cx="1497.406" cy="1402.183" r="3.219" fill-opacity=".157"/><circle cx="429.554" cy="250.745" r=".447" fill-opacity=".5"/><circle cx="620.279" cy="1420.256" r="2.814" fill-opacity=".108"/><circle cx="568.61" cy="990.585" r=".954" fill-opacity=".297"/><circle cx="1432.89" cy="903.229" r="1.276" fill-opacity=".269"/><circle cx="1557.199" cy="878.989" r="2.159" fill-opacity=".545"/><circle cx="1288.441" cy="136.008" r="3.939" fill-opacity=".361"/><circle cx="1952.561" cy="276.374" r=".913" fill-opacity=".579"/><circle cx="529.139" cy="1791.912" r="2.836" fill-opacity=".597"/><circle cx="162.155" cy="1138.887" r="1.695" fill-opacity=".123"/><circle cx="1109.223" cy="8.808" r=".615" fill-opacity=".586"/><circle cx="2001.767" cy="1144.82" r="2.156" fill-opacity=".24"/><circle cx="514.511" cy="286.918" r="1.642" fill-opacity=".481"/><circle cx="1689.192" cy="1407.283" r=".814" fill-opacity=".34"/><circle cx="1430.922" cy="346.621" r="1.815" fill-opacity=".319"/><circle cx="484.259" cy="1420.137" r="1.13" fill-opacity=".253"/><circle cx="1974.875" cy="1438.912" r="1.402" fill-opacity=".41"/><circle cx="1820.266" cy="1526.621" r=".936" fill-opacity=".363"/><circle cx="344.524" cy="608.009" r="2.432" fill-opacity=".332"/><circle cx="1969.839" cy="196.953" r="1.945" fill-opacity=".26"/><circle cx="1082.41" cy="906.789" r="3.649" fill-opacity=".111"/><circle cx="1082.835" cy="1389.191" r="4.665" fill-opacity=".202"/><circle cx="1794.6" cy="1453.914" r=".333" fill-opacity=".456"/><circle cx="910.348" cy="63.863" r="3.909" fill-opacity=".131"/><circle cx="1227.719" cy="66.165" r="2.278" fill-opacity=".222"/><circle cx="1244.455" cy="1325.964" r="2.557" fill-opacity=".348"/><circle cx="1597.807" cy="122.968" r="2.529" fill-opacity=".164"/><circle cx="1543.397" cy="1332.1" r="3.091" fill-opacity=".545"/><circle cx="1306.278" cy="471.128" r="1.678" fill-opacity=".503"/><circle cx="1404.924" cy="73.67" r="1.899" fill-opacity=".278"/><circle cx="312.354" cy="1522.999" r="1.928" fill-opacity=".591"/><circle cx="1326.821" cy="274.622" r="3.29" fill-opacity=".541"/><circle cx="318.432" cy="330.344" r="1.52" fill-opacity=".274"/><circle cx="1890.562" cy="325.335" r=".397" fill-opacity=".595"/><circle cx="20.062" cy="79.542" r="4.574" fill-opacity=".444"/><circle cx="321.909" cy="1618.78" r="4.65" fill-opacity=".366"/><circle cx="21.181" cy="909.495" r=".609" fill-opacity=".163"/><circle cx="1380.745" cy="978.591" r="1.071" fill-opacity=".336"/><circle cx="1255.997" cy="1105.787" r=".675" fill-opacity=".142"/><circle cx="769.603" cy="1260.98" r=".616" fill-opacity=".458"/><circle cx="1906.718" cy="514.981" r="3.423" fill-opacity=".205"/><circle cx="1413.949" cy="1061.792" r="3.826" fill-opacity=".521"/><circle cx="1713.932" cy="202.508" r="3.327" fill-opacity=".21"/><circle cx="295.776" cy="1624.405" r="1.398" fill-opacity=".379"/><circle cx="678.041" cy="33.53" r=".391" fill-opacity=".358"/><circle cx="1943.979" cy="35.978" r="1.749" fill-opacity=".396"/><circle cx="1724.95" cy="1270.881" r="3.902" fill-opacity=".512"/><circle cx="79.345" cy="1577.703" r="1.501" fill-opacity=".516"/><circle cx="7.361" cy="1492.14" r="1.058" fill-opacity=".232"/><circle cx="1207.871" cy="1548.828" r=".881" fill-opacity=".453"/><circle cx="1592.286" cy="16.132" r="2.608" fill-opacity=".371"/><circle cx="1304.812" cy="1075.518" r="2.18" fill-opacity=".515"/><circle cx="1944.12" cy="7.137" r="2.68" fill-opacity=".533"/><circle cx="1309.923" cy="760.826" r="1.101" fill-opacity=".269"/><circle cx="1453.803" cy="1990.844" r="3.585" fill-opacity=".237"/><circle cx="345.206" cy="1773.266" r="4.708" fill-opacity=".385"/><circle cx="915.554" cy="789.154" r="1.46" fill-opacity=".128"/><circle cx="1658.71" cy="904.45" r="1.646" fill-opacity=".518"/><circle cx="660.701" cy="1177.698" r="4.263" fill-opacity=".214"/><circle cx="1975.578" cy="1095.518" r=".639" fill-opacity=".494"/><circle cx="1109.646" cy="1763.619" r=".913" fill-opacity=".333"/><circle cx="1108.623" cy="325.905" r="4.613" fill-opacity=".311"/><circle cx="1386.796" cy="538.811" r="4.05" fill-opacity=".108"/><circle cx="1651.086" cy="1127.673" r="4.045" fill-opacity=".331"/><circle cx="240.057" cy="920.908" r="1.101" fill-opacity=".323"/><circle cx="15.472" cy="248.127" r="2.68" fill-opacity=".533"/><circle cx="722.438" cy="27.911" r="2.704" fill-opacity=".261"/><circle cx="1494.676" cy="605.691" r="4.238" fill-opacity=".429"/><circle cx="656.163" cy="1019.478" r="3.551" fill-opacity=".117"/><circle cx="1522.425" cy="955.643" r="3.044" fill-opacity=".465"/><circle cx="273.231" cy="1314.934" r=".69" fill-opacity=".285"/><circle cx="228.367" cy="1107.57" r="2.459" fill-opacity=".218"/><circle cx="1782.277" cy="722.306" r="1.781" fill-opacity=".492"/><circle cx="1713.747" cy="1752.347" r="4.202" fill-opacity=".4"/><circle cx="1436.474" cy="1197.556" r="2.564" fill-opacity=".145"/><circle cx="1094.361" cy="859.376" r=".791" fill-opacity=".272"/><circle cx="1200.515" cy="1999.414" r="3.925" fill-opacity=".514"/><circle cx="1308.72" cy="1622.771" r="2.388" fill-opacity=".431"/><circle cx="1134.239" cy="1909.2" r=".324" fill-opacity=".318"/><circle cx="1114.676" cy="1524.678" r="3.196" fill-opacity=".138"/><circle cx="307.441" cy="721.603" r="2.992" fill-opacity=".494"/><circle cx="446.442" cy="1770.335" r=".463" fill-opacity=".352"/><circle cx="780.088" cy="769.671" r=".559" fill-opacity=".199"/><circle cx="1441.968" cy="1232.418" r="1.405" fill-opacity=".301"/><circle cx="466.415" cy="983.839" r="1.36" fill-opacity=".417"/><circle cx="1734.545" cy="1920.412" r="2.895" fill-opacity=".208"/><circle cx="2006.256" cy="1831.181" r="4.245" fill-opacity=".333"/><circle cx="1738.653" cy="616.584" r="3.85" fill-opacity=".301"/><circle cx="2013.197" cy="520.412" r="3.794" fill-opacity=".358"/><circle cx="1066.66" cy="386.145" r="4.56" fill-opacity=".141"/><circle cx="30.688" cy="1824.355" r=".646" fill-opacity=".357"/><circle cx="911.847" cy="929.49" r=".723" fill-opacity=".434"/><circle cx="1632.824" cy="731.184" r="4.299" fill-opacity=".222"/><circle cx="1430.392" cy="1917.89" r="2.892" fill-opacity=".562"/><circle cx="637.377" cy="473.937" r="3.886" fill-opacity=".339"/><circle cx="1801.736" cy="2011.29" r="1.413" fill-opacity=".32"/><circle cx="1975.872" cy="1616.702" r="3.205" fill-opacity=".326"/><circle cx="677.426" cy="655.882" r=".405" fill-opacity=".367"/><circle cx="942.961" cy="497.568" r="1.535" fill-opacity=".415"/><circle cx="378.743" cy="1618.676" r="1.712" fill-opacity=".288"/><circle cx="889.215" cy="573.843" r="4.745" fill-opacity=".116"/><circle cx="1845.567" cy="1645.737" r="2.972" fill-opacity=".516"/><circle cx="1544.293" cy="2045.545" r="2.479" fill-opacity=".277"/><circle cx="887.827" cy="1444.613" r="4.464" fill-opacity=".137"/><circle cx="1530.714" cy="1127.146" r="3.167" fill-opacity=".547"/><circle cx="4.437" cy="86.251" r="2.315" fill-opacity=".107"/><circle cx="1820.456" cy="1297.255" r="2.283" fill-opacity=".434"/><circle cx="620.179" cy="1018.12" r="2.089" fill-opacity=".111"/><circle cx="293.597" cy="611.481" r="4.321" fill-opacity=".119"/><circle cx="1344.836" cy="1606.586" r="2.705" fill-opacity=".117"/><circle cx="1035.284" cy="1132.833" r="3.955" fill-opacity=".42"/><circle cx="1326.027" cy="1319.818" r=".871" fill-opacity=".559"/><circle cx="1630.14" cy="926.708" r="3.339" fill-opacity=".479"/><circle cx="1913.45" cy="1214.974" r="3.764" fill-opacity=".481"/><circle cx="971.587" cy="759.143" r="2.894" fill-opacity=".517"/><circle cx="1057.645" cy="1948.19" r="4.561" fill-opacity=".255"/><circle cx="1378.733" cy="1905.485" r="3.249" fill-opacity=".282"/><circle cx="1433.528" cy="365.982" r="1.999" fill-opacity=".375"/><circle cx="694.719" cy="618.551" r="2.491" fill-opacity=".21"/><circle cx="1015.739" cy="1400.499" r="1.785" fill-opacity=".531"/><circle cx="915.902" cy="999.31" r=".344" fill-opacity=".378"/><circle cx="645.626" cy="412.431" r="1.104" fill-opacity=".16"/><circle cx="1770.621" cy="1667.232" r="3.73" fill-opacity=".274"/><circle cx="338.062" cy="433.321" r=".418" fill-opacity=".301"/><circle cx="968.538" cy="1751.925" r="1.176" fill-opacity=".574"/><circle cx="853.564" cy="1283.174" r="3.308" fill-opacity=".117"/><circle cx="86.218" cy="1206.885" r="3.304" fill-opacity=".246"/><circle cx="590.235" cy="1501.091" r="1.398" fill-opacity=".275"/><circle cx="1784.864" cy="272.438" r="4.275" fill-opacity=".447"/><circle cx="271.568" cy="750.334" r="3.437" fill-opacity=".104"/><circle cx="857.911" cy="43.745" r="1.88" fill-opacity=".294"/><circle cx="1859.983" cy="327.711" r="4.177" fill-opacity=".341"/><circle cx="705.624" cy="1261.851" r="4.217" fill-opacity=".225"/><circle cx="578.163" cy="1251.568" r="2.172" fill-opacity=".292"/><circle cx="332.89" cy="416.227" r="4.494" fill-opacity=".37"/><circle cx="1792.688" cy="271.524" r="4.538" fill-opacity=".591"/><circle cx="476.536" cy="1673.524" r=".741" fill-opacity=".555"/><circle cx="919.855" cy="1889.699" r="1.817" fill-opacity=".307"/><circle cx="1382.025" cy="175.84" r="3.809" fill-opacity=".353"/><circle cx="561.474" cy="1627.423" r="4.296" fill-opacity=".54"/><circle cx="1757.935" cy="1598.488" r="3.667" fill-opacity=".184"/><circle cx="1822.284" cy="342.501" r="1.895" fill-opacity=".12"/><circle cx="92.511" cy="1614.915" r="1.153" fill-opacity=".201"/><circle cx="323.282" cy="1071.144" r="2.075" fill-opacity=".378"/><circle cx="1246.011" cy="646.2" r="4.482" fill-opacity=".17"/><circle cx="1505.401" cy="1012.791" r="2.964" fill-opacity=".351"/><circle cx="1719.76" cy="1744.56" r="2.274" fill-opacity=".135"/><circle cx="1859.886" cy="422.285" r="4.141" fill-opacity=".422"/><circle cx="1210.753" cy="125.697" r=".46" fill-opacity=".345"/><circle cx="945.593" cy="184.697" r="3.1" fill-opacity=".433"/><circle cx="175.01" cy="1941.529" r="1.406" fill-opacity=".495"/><circle cx="1536.46" cy="226.598" r="2.162" fill-opacity=".114"/><circle cx="775.634" cy="1033.41" r="3.671" fill-opacity=".285"/><circle cx="1635.573" cy="69.415" r="3.159" fill-opacity=".17"/><circle cx="1834" cy="550.772" r="2.136" fill-opacity=".262"/><circle cx="416.704" cy="1283.55" r="3.166" fill-opacity=".418"/><circle cx="2039.06" cy="791.75" r="1.121" fill-opacity=".551"/><circle cx="2034.285" cy="1905.508" r="1.718" fill-opacity=".329"/><circle cx="46.96" cy="757.176" r="1.333" fill-opacity=".283"/><circle cx="1139.512" cy="1243.575" r=".931" fill-opacity=".447"/><circle cx="1467.506" cy="1550.674" r="4.537" fill-opacity=".349"/><circle cx="876.681" cy="923.636" r="2.373" fill-opacity=".398"/><circle cx="1013.017" cy="582.318" r="2.563" fill-opacity=".433"/><circle cx="81.86" cy="2025.561" r=".399" fill-opacity=".443"/><circle cx="1272.935" cy="1413.854" r="1.499" fill-opacity=".501"/><circle cx="270.959" cy="95.856" r="3.812" fill-opacity=".135"/><circle cx="196.077" cy="1372.105" r=".683" fill-opacity=".306"/><circle cx="1440.139" cy="492.268" r="4.222" fill-opacity=".536"/><circle cx="1561.363" cy="382.795" r="3.901" fill-opacity=".209"/><circle cx="1866.619" cy="1955.429" r="3.245" fill-opacity=".449"/><circle cx="247.715" cy="457.174" r="1.549" fill-opacity=".244"/><circle cx="1290.386" cy="1007.393" r="2.902" fill-opacity=".482"/><circle cx="1899.682" cy="1264.599" r="2.94" fill-opacity=".11"/><circle cx="1965.729" cy="1390.298" r="4.655" fill-opacity=".295"/><circle cx="947.371" cy="845.773" r="4.351" fill-opacity=".17"/><circle cx="622.218" cy="986.489" r="2.671" fill-opacity=".257"/><circle cx="46.312" cy="1969.292" r="1.595" fill-opacity=".457"/><circle cx="1656.041" cy="36.087" r=".724" fill-opacity=".502"/><circle cx="1951.124" cy="1523.522" r="1.912" fill-opacity=".147"/><circle cx="1614.009" cy="110.906" r=".742" fill-opacity=".366"/><circle cx="426.342" cy="1853.893" r="2.913" fill-opacity=".564"/><circle cx="825.969" cy="707.396" r="2.491" fill-opacity=".108"/><circle cx="1102.227" cy="597.124" r=".982" fill-opacity=".193"/><circle cx="171.483" cy="1297.104" r="3.491" fill-opacity=".27"/><circle cx="427.741" cy="1517.174" r="1.777" fill-opacity=".319"/><circle cx="1550.113" cy="979.514" r="1.197" fill-opacity=".283"/><circle cx="1195.301" cy="698.266" r=".758" fill-opacity=".269"/><circle cx="571.305" cy="907.871" r="2.751" fill-opacity=".555"/><circle cx="611.88" cy="46.556" r="2.113" fill-opacity=".562"/><circle cx="1085.917" cy="1988.676" r=".631" fill-opacity=".505"/><circle cx="1587.009" cy="556.067" r="4.107" fill-opacity=".599"/><circle cx="802.208" cy="1677.147" r=".899" fill-opacity=".326"/><circle cx="1386.947" cy="322.594" r="1.875" fill-opacity=".433"/><circle cx="848.853" cy="765.92" r="3.896" fill-opacity=".597"/><circle cx="923.45" cy="1173.397" r="2.045" fill-opacity=".48"/><circle cx="1842.758" cy="1664.27" r="3.057" fill-opacity=".112"/><circle cx="344.358" cy="392.315" r="4.123" fill-opacity=".142"/><circle cx="1110.528" cy="1967.333" r="1.705" fill-opacity=".467"/><circle cx="1024.698" cy="2035.558" r="1.197" fill-opacity=".553"/><circle cx="903.852" cy="1904.896" r="3.394" fill-opacity=".384"/><circle cx="1767.382" cy="24.669" r="4.312" fill-opacity=".3"/><circle cx="338.365" cy="1782.852" r="4.614" fill-opacity=".327"/><circle cx="1598.407" cy="825.083" r="1.969" fill-opacity=".524"/><circle cx="1386.44" cy="1216.074" r=".9" fill-opacity=".191"/><circle cx="791.989" cy="568.745" r="4.057" fill-opacity=".147"/><circle cx="322.345" cy="1141.095" r="3.688" fill-opacity=".583"/><circle cx="1066.532" cy="543.562" r="2.587" fill-opacity=".322"/><circle cx="2032.241" cy="179.786" r="4.13" fill-opacity=".355"/><circle cx="240.421" cy="1201.392" r="2.898" fill-opacity=".575"/><circle cx="2018.028" cy="597.593" r=".823" fill-opacity=".385"/><circle cx="462.085" cy="520.419" r="4.534" fill-opacity=".522"/><circle cx="1274.426" cy="829.761" r=".864" fill-opacity=".518"/><circle cx="836.82" cy="1307.845" r="4.255" fill-opacity=".306"/><circle cx="1081.404" cy="1972.87" r="1.1" fill-opacity=".409"/><circle cx="809.539" cy="550.21" r="2.294" fill-opacity=".287"/><circle cx="2020.177" cy="486.045" r="1.07" fill-opacity=".516"/><circle cx="303.606" cy="83.785" r="1.557" fill-opacity=".169"/><circle cx="997.168" cy="1772.388" r="3.772" fill-opacity=".482"/><circle cx="343.628" cy="713.719" r="3.641" fill-opacity=".192"/><circle cx="629.548" cy="570.489" r="4.257" fill-opacity=".209"/><circle cx="713.955" cy="1942.308" r="3.577" fill-opacity=".23"/><circle cx="317.127" cy="1876.469" r="3.087" fill-opacity=".373"/><circle cx="1992.771" cy="507.804" r="1.751" fill-opacity=".567"/><circle cx="767.696" cy="1320.214" r=".993" fill-opacity=".206"/><circle cx="643.698" cy="685.71" r="2.971" fill-opacity=".348"/><circle cx="571.06" cy="1410.381" r="3.955" fill-opacity=".205"/><circle cx="739.853" cy="1895.618" r="3.144" fill-opacity=".372"/><circle cx="53.63" cy="125.838" r="2.075" fill-opacity=".496"/><circle cx="1690.579" cy="433.754" r="3.798" fill-opacity=".369"/><circle cx="1676.944" cy="1681" r="3.846" fill-opacity=".378"/><circle cx="64.387" cy="930.788" r="1.046" fill-opacity=".468"/><circle cx="1451.141" cy="717.337" r="2.349" fill-opacity=".517"/><circle cx="537.736" cy="437.705" r="1.543" fill-opacity=".103"/><circle cx="1391.611" cy="1954.796" r="4.462" fill-opacity=".593"/><circle cx="1844.392" cy="1922.257" r="4.13" fill-opacity=".577"/><circle cx="1058.195" cy="1544.435" r="1.176" fill-opacity=".547"/><circle cx="932.493" cy="1112.904" r="3.212" fill-opacity=".14"/><circle cx="25.553" cy="1908.83" r=".339" fill-opacity=".421"/><circle cx="213.466" cy="2002.555" r="3.986" fill-opacity=".488"/><circle cx="980.293" cy="1776.845" r="4.342" fill-opacity=".428"/><circle cx="777.251" cy="1792.719" r="4.336" fill-opacity=".241"/><circle cx="602.09" cy="1024.825" r="1.463" fill-opacity=".164"/><circle cx="69.384" cy="530.031" r="3.382" fill-opacity=".247"/><circle cx="361.845" cy="1782.989" r="4.271" fill-opacity=".247"/><circle cx="293.282" cy="1347.687" r="1.246" fill-opacity=".434"/><circle cx="104.021" cy="1516.502" r="2.384" fill-opacity=".173"/><circle cx="1820.099" cy="1988.561" r="3.146" fill-opacity=".471"/><circle cx="756.305" cy="1845.382" r="2.698" fill-opacity=".12"/><circle cx="1363.637" cy="1794.028" r="1.838" fill-opacity=".137"/><circle cx="1802.765" cy="262.869" r="4.241" fill-opacity=".418"/><circle cx="428.066" cy="1675.142" r="3.461" fill-opacity=".535"/><circle cx="1766.057" cy="1546.08" r="3.723" fill-opacity=".14"/><circle cx="1661.585" cy="1080.837" r="3.945" fill-opacity=".452"/><circle cx="1467.337" cy="735.097" r="2.537" fill-opacity=".282"/><circle cx="1990.684" cy="59.26" r="1.67" fill-opacity=".441"/><circle cx="1715.541" cy="1895.261" r="2.687" fill-opacity=".403"/><circle cx="1322.723" cy="207.533" r="4.484" fill-opacity=".221"/><circle cx="847.406" cy="1405.773" r="3.365" fill-opacity=".528"/><circle cx="381.703" cy="919.82" r="3.044" fill-opacity=".541"/><circle cx="338.142" cy="749.914" r="3.411" fill-opacity=".179"/><circle cx="441.653" cy="154.54" r="4.424" fill-opacity=".264"/><circle cx="34.58" cy="209.252" r=".569" fill-opacity=".102"/><circle cx="1533.808" cy="1494.895" r="2.032" fill-opacity=".106"/><circle cx="1207.104" cy="1753.154" r="3.581" fill-opacity=".586"/><circle cx="71.271" cy="874.915" r="2.215" fill-opacity=".377"/><circle cx="1901.594" cy="81.649" r="2.652" fill-opacity=".527"/><circle cx="3.333" cy="145.363" r="1.611" fill-opacity=".574"/><circle cx="1724.272" cy="366.057" r=".584" fill-opacity=".328"/><circle cx="983.609" cy="1970.917" r="1.094" fill-opacity=".145"/><circle cx="295.799" cy="431.207" r=".551" fill-opacity=".576"/><circle cx="380.952" cy="565.794" r="1.431" fill-opacity=".46"/><circle cx="2041.98" cy="953.96" r="1.471" fill-opacity=".103"/><circle cx="356.963" cy="187.331" r="4.196" fill-opacity=".578"/><circle cx="217.427" cy="1613.553" r="2.183" fill-opacity=".502"/><circle cx="1142.209" cy="718.234" r="1.702" fill-opacity=".439"/><circle cx="776.078" cy="647.312" r="4.55" fill-opacity=".135"/><circle cx="418.733" cy="1093.216" r="1.122" fill-opacity=".314"/><circle cx="1392.055" cy="1775.864" r="3.745" fill-opacity=".519"/><circle cx="1602.538" cy="1250.659" r="3.545" fill-opacity=".235"/><circle cx="218.371" cy="1054.254" r="2.351" fill-opacity=".547"/><circle cx="894.401" cy="1161.356" r="1.808" fill-opacity=".189"/><circle cx="457.337" cy="108.228" r="2.696" fill-opacity=".371"/><circle cx="402.676" cy="1383.739" r=".564" fill-opacity=".358"/><circle cx="272.545" cy="1456.904" r="1.946" fill-opacity=".53"/><circle cx="1027.424" cy="758.27" r="3.023" fill-opacity=".158"/><circle cx="1009.648" cy="1801.708" r="1.631" fill-opacity=".401"/><circle cx="290.992" cy="101.258" r="1.13" fill-opacity=".343"/><circle cx="754.755" cy="586.848" r=".381" fill-opacity=".573"/><circle cx="974.029" cy="2047.655" r="4.202" fill-opacity=".177"/><circle cx="1654.433" cy="577.913" r=".849" fill-opacity=".187"/><circle cx="181.952" cy="312.312" r="2.157" fill-opacity=".456"/><circle cx="1408.913" cy="181.677" r=".967" fill-opacity=".514"/><circle cx="69.809" cy="1358.268" r="4.205" fill-opacity=".52"/><circle cx="479.106" cy="1877.463" r="1.192" fill-opacity=".345"/><circle cx="655.873" cy="1512.374" r="2.488" fill-opacity=".388"/><circle cx="1051.348" cy="559.765" r="2.592" fill-opacity=".189"/><circle cx="285.688" cy="306.591" r="1.114" fill-opacity=".543"/><circle cx="4.355" cy="528.007" r="3.645" fill-opacity=".575"/><circle cx="1120.065" cy="1175.029" r="1.853" fill-opacity=".217"/><circle cx="547.387" cy="1222.65" r="1.742" fill-opacity=".503"/><circle cx="1379.249" cy="1557.654" r="1.087" fill-opacity=".297"/><circle cx="1219.422" cy="1992.719" r="3.356" fill-opacity=".226"/><circle cx="903.541" cy="733.218" r="1.872" fill-opacity=".531"/><circle cx="924.146" cy="1009.607" r="3.702" fill-opacity=".583"/><circle cx="1075.686" cy="7.619" r="3.55" fill-opacity=".241"/><circle cx="1155.865" cy="15.981" r="3.781" fill-opacity=".36"/><circle cx="1724.889" cy="33.292" r=".906" fill-opacity=".37"/><circle cx="1018.301" cy="1882.79" r="2.545" fill-opacity=".155"/><circle cx="1837.061" cy="1511.78" r=".279" fill-opacity=".237"/><circle cx="436.145" cy="1026.477" r="3.671" fill-opacity=".317"/><circle cx="1565.8" cy="1846.665" r="2.588" fill-opacity=".5"/><circle cx="1863.591" cy="937.237" r="1.496" fill-opacity=".123"/><circle cx="578.548" cy="1997.287" r="4.433" fill-opacity=".442"/><circle cx="229.247" cy="681.202" r="2.387" fill-opacity=".23"/><circle cx="1664.04" cy="791.197" r="4.394" fill-opacity=".176"/><circle cx="1953.345" cy="617.767" r="1.044" fill-opacity=".463"/><circle cx="1246.213" cy="1856.739" r="2.36" fill-opacity=".155"/><circle cx="2005.296" cy="1973.318" r="4.067" fill-opacity=".522"/><circle cx="280.575" cy="1680.572" r="2.441" fill-opacity=".574"/><circle cx="1860.263" cy="903.848" r="2.586" fill-opacity=".12"/><circle cx="743.144" cy="1101.072" r="1.316" fill-opacity=".21"/><circle cx="472.753" cy="1039.218" r=".965" fill-opacity=".501"/><circle cx="904.22" cy="697.479" r="2.454" fill-opacity=".491"/><circle cx="194.248" cy="934.901" r="3.847" fill-opacity=".279"/><circle cx="852.831" cy="1898.798" r="3.722" fill-opacity=".467"/><circle cx="634.683" cy="147.343" r="2.738" fill-opacity=".503"/><circle cx="995.33" cy="818.195" r="3.284" fill-opacity=".415"/><circle cx="1552.009" cy="1096.459" r="3.482" fill-opacity=".122"/><circle cx="85.918" cy="814.349" r="3.843" fill-opacity=".542"/><circle cx="1001.757" cy="1845.884" r="2.45" fill-opacity=".113"/><circle cx="350.097" cy="1447.606" r="2.729" fill-opacity=".369"/><circle cx="1526.063" cy="1461.608" r=".297" fill-opacity=".482"/><circle cx="56.785" cy="1151.299" r="3.344" fill-opacity=".555"/><circle cx="1645.377" cy="1678.083" r="2.3" fill-opacity=".178"/><circle cx="1648.737" cy="719.074" r="1.28" fill-opacity=".33"/><circle cx="87.339" cy="1904.061" r="2.671" fill-opacity=".109"/><circle cx="1495.359" cy="19.466" r=".489" fill-opacity=".382"/><circle cx="798.791" cy="1310.041" r="4.532" fill-opacity=".47"/><circle cx="308.681" cy="585.771" r="2.084" fill-opacity=".228"/><circle cx="1259.221" cy="1438.4" r="1.924" fill-opacity=".221"/><circle cx="834.333" cy="644.673" r="2.913" fill-opacity=".206"/><circle cx="676.137" cy="1211.178" r="4.054" fill-opacity=".595"/><circle cx="814.182" cy="1330.624" r="3.326" fill-opacity=".226"/><circle cx="29.136" cy="1840.152" r="3.536" fill-opacity=".456"/><circle cx="926.223" cy="816.648" r="4.691" fill-opacity=".362"/><circle cx="558.148" cy="1273.121" r="2.526" fill-opacity=".339"/><circle cx="1812.321" cy="634.313" r="4.546" fill-opacity=".202"/><circle cx="755.387" cy="1840.208" r="1.491" fill-opacity=".158"/><circle cx="749.705" cy="1194.704" r="3.319" fill-opacity=".192"/><circle cx="919.17" cy="448.733" r=".756" fill-opacity=".131"/><circle cx="1616.216" cy="453.906" r="3.602" fill-opacity=".128"/><circle cx="60.379" cy="1188.137" r="3.291" fill-opacity=".173"/><circle cx="206.138" cy="326.275" r=".577" fill-opacity=".51"/><circle cx="162.376" cy="1354.081" r="1.646" fill-opacity=".564"/><circle cx="1032.187" cy="1648.999" r="1.03" fill-opacity=".191"/><circle cx="1645.41" cy="1946.365" r="2.542" fill-opacity=".356"/><circle cx="410.033" cy="1541.386" r=".441" fill-opacity=".354"/><circle cx="1247.313" cy="108.902" r="4.073" fill-opacity=".268"/><circle cx="903.04" cy="157.68" r=".372" fill-opacity=".144"/><circle cx="95.973" cy="1130.478" r="1.663" fill-opacity=".369"/><circle cx="1150.114" cy="53.044" r="2.293" fill-opacity=".214"/><circle cx="1845.729" cy="65.218" r="2.07" fill-opacity=".12"/><circle cx="916.232" cy="116.765" r=".481" fill-opacity=".531"/><circle cx="1099.712" cy="1911.786" r="4.261" fill-opacity=".495"/><circle cx="501.403" cy="702.988" r=".697" fill-opacity=".4"/><circle cx="1549.553" cy="25.568" r="1.19" fill-opacity=".348"/><circle cx="1624.034" cy="546.175" r="4.021" fill-opacity=".12"/><circle cx="1883.606" cy="651.169" r="2.958" fill-opacity=".467"/><circle cx="1130.918" cy="696.582" r="4.037" fill-opacity=".226"/><circle cx="379.344" cy="509.674" r="1.662" fill-opacity=".13"/><circle cx="744.63" cy="525.131" r="1.697" fill-opacity=".341"/><circle cx="1812.836" cy="576.382" r="1.475" fill-opacity=".432"/><circle cx="236.989" cy="241.853" r="1.975" fill-opacity=".54"/><circle cx="1678.881" cy="1929.795" r="3.891" fill-opacity=".273"/><circle cx="71.631" cy="1336.821" r=".321" fill-opacity=".551"/><circle cx="466.514" cy="946.028" r="3.738" fill-opacity=".468"/><circle cx="553.942" cy="302.09" r=".603" fill-opacity=".286"/><circle cx="721.023" cy="999.453" r="1.49" fill-opacity=".417"/><circle cx="1821.038" cy="1497.046" r="2.507" fill-opacity=".333"/><circle cx="1313.896" cy="266.377" r="1.009" fill-opacity=".385"/><circle cx="1122.871" cy="402.672" r="1.883" fill-opacity=".226"/><circle cx="1521.55" cy="533.653" r="3.513" fill-opacity=".496"/><circle cx="1951.911" cy="375.806" r="3.756" fill-opacity=".184"/><circle cx="1131.207" cy="690.408" r=".504" fill-opacity=".166"/><circle cx="1711.114" cy="573.233" r="4.362" fill-opacity=".544"/><circle cx="2012.975" cy="719.353" r=".909" fill-opacity=".435"/><circle cx="1927.031" cy="1429.809" r="3.575" fill-opacity=".197"/><circle cx="902.057" cy="1898.887" r="3.772" fill-opacity=".234"/><circle cx="1209.402" cy="1370.509" r="1.939" fill-opacity=".172"/><circle cx="2008.737" cy="1059.414" r="4.584" fill-opacity=".177"/><circle cx="454.091" cy="449.971" r="1.356" fill-opacity=".558"/><circle cx="939.548" cy="714.965" r="2.764" fill-opacity=".123"/><circle cx="169.171" cy="1729.92" r="3.496" fill-opacity=".532"/><circle cx="1385.525" cy="505.617" r="4.233" fill-opacity=".429"/><circle cx="2013.064" cy="1969.35" r="3.319" fill-opacity=".151"/><circle cx="1471.194" cy="1273.242" r="2.7" fill-opacity=".124"/><circle cx="1164.563" cy="644.463" r="2.779" fill-opacity=".459"/><circle cx="443.613" cy="1660.785" r="3.241" fill-opacity=".247"/><circle cx="1994.413" cy="1779.295" r=".713" fill-opacity=".533"/><circle cx="1012.26" cy="1617.041" r="3.993" fill-opacity=".108"/><circle cx="415.937" cy="1778.199" r="2.61" fill-opacity=".219"/><circle cx="1088.766" cy="265.774" r="4.63" fill-opacity=".504"/><circle cx="322.91" cy="1518.3" r=".736" fill-opacity=".515"/><circle cx="1074.559" cy="907.374" r="3.011" fill-opacity=".407"/><circle cx="43.614" cy="1908.176" r="3.458" fill-opacity=".585"/><circle cx="669.386" cy="1407.936" r="3.597" fill-opacity=".273"/><circle cx="64.874" cy="658.357" r="2.19" fill-opacity=".552"/><circle cx="1645.897" cy="28.228" r="3.546" fill-opacity=".141"/><circle cx="1392.609" cy="1450.166" r="1.515" fill-opacity=".522"/><circle cx="195.738" cy="1507.227" r="4.107" fill-opacity=".203"/><circle cx="979.145" cy="1013.506" r="2.269" fill-opacity=".257"/><circle cx="209.523" cy="380.703" r="3.239" fill-opacity=".486"/><circle cx="314.034" cy="478.344" r="2.65" fill-opacity=".137"/><circle cx="1124.385" cy="1568.589" r="2.535" fill-opacity=".533"/><circle cx="1980.642" cy="822.233" r="3.605" fill-opacity=".125"/><circle cx="465.935" cy="582.871" r="1.155" fill-opacity=".153"/><circle cx="1780.711" cy="370.33" r=".65" fill-opacity=".514"/><circle cx="1599.553" cy="555.638" r="3.985" fill-opacity=".286"/><circle cx="1251.15" cy="1019.379" r="4.495" fill-opacity=".28"/><circle cx="834.675" cy="1896.009" r=".874" fill-opacity=".277"/><circle cx="197.548" cy="1312.976" r="4.001" fill-opacity=".135"/><circle cx="55.715" cy="998.616" r=".292" fill-opacity=".494"/><circle cx="1189.018" cy="928.205" r="4.213" fill-opacity=".378"/><circle cx="1384.806" cy="1616.522" r="1.95" fill-opacity=".112"/><circle cx="1323.244" cy="183.119" r="2.029" fill-opacity=".588"/><circle cx="498.827" cy="1942.942" r=".482" fill-opacity=".372"/><circle cx="2006.386" cy="1795.674" r="4.072" fill-opacity=".285"/><circle cx="381.493" cy="1674.667" r="1.122" fill-opacity=".316"/><circle cx="1401.864" cy="714.487" r="3.533" fill-opacity=".395"/><circle cx="1900.732" cy="533.475" r="4.578" fill-opacity=".35"/><circle cx="1938.135" cy="1617.296" r="3.749" fill-opacity=".121"/><circle cx="1227.996" cy="1339.825" r="1.743" fill-opacity=".193"/><circle cx="728.326" cy="334.466" r="1.882" fill-opacity=".36"/><circle cx="907.642" cy="889.191" r="2.094" fill-opacity=".195"/><circle cx="571.823" cy="1740.495" r=".386" fill-opacity=".139"/><circle cx="1379.131" cy="1188.667" r="1.03" fill-opacity=".126"/><circle cx="1011.749" cy="1995.938" r="3.57" fill-opacity=".443"/><circle cx="1759.361" cy="1419.145" r="3.122" fill-opacity=".244"/><circle cx="442.051" cy="1671.922" r="2.474" fill-opacity=".396"/><circle cx="569.071" cy="10.459" r="2.355" fill-opacity=".227"/><circle cx="1861.005" cy="116.692" r="1.284" fill-opacity=".499"/><circle cx="1617.817" cy="1126.313" r="2.516" fill-opacity=".177"/><circle cx="1510.523" cy="1687.093" r="3.117" fill-opacity=".426"/><circle cx="1847.436" cy="1731.037" r="3.621" fill-opacity=".51"/><circle cx="459.52" cy="403.124" r="4.424" fill-opacity=".109"/><circle cx="1879.406" cy="90.157" r="3.508" fill-opacity=".321"/><circle cx="1207.701" cy="1776.256" r="2.372" fill-opacity=".154"/><circle cx="474.455" cy="1506.657" r="4.469" fill-opacity=".48"/><circle cx="1415.682" cy="1250.833" r="4.421" fill-opacity=".355"/><circle cx="1559.311" cy="1767.293" r="2.994" fill-opacity=".184"/><circle cx="14.735" cy="1920.987" r="4.233" fill-opacity=".318"/><circle cx="72.918" cy="1283.91" r="2.994" fill-opacity=".223"/><circle cx="1095.708" cy="1959.777" r="4.209" fill-opacity=".558"/><circle cx="1370.486" cy="788.601" r="2.731" fill-opacity=".53"/><circle cx="1286.907" cy="1253.362" r="2.01" fill-opacity=".118"/><circle cx="1386.705" cy="103.122" r="1.61" fill-opacity=".279"/><circle cx="1282.731" cy="92.505" r="1.878" fill-opacity=".198"/><circle cx="97.071" cy="95.293" r="3.61" fill-opacity=".233"/><circle cx="1272.777" cy="767.914" r="2.428" fill-opacity=".207"/><circle cx="1364.024" cy="1933.463" r="2.096" fill-opacity=".144"/><circle cx="660.913" cy="1179.149" r="1.044" fill-opacity=".398"/><circle cx="524.687" cy="342.314" r="1.822" fill-opacity=".573"/><circle cx="73.22" cy="1752.907" r="1.883" fill-opacity=".162"/><circle cx="430.839" cy="1780.6" r="1.915" fill-opacity=".494"/><circle cx="1171.76" cy="1754.846" r="1.745" fill-opacity=".492"/><circle cx="2009.126" cy="1082.964" r="4.507" fill-opacity=".239"/><circle cx="824.2" cy="31.671" r="2.879" fill-opacity=".323"/><circle cx="37.399" cy="1084.233" r="2.263" fill-opacity=".204"/><circle cx="130.781" cy="1302.326" r="2.748" fill-opacity=".18"/><circle cx="8.784" cy="588.938" r="3.281" fill-opacity=".588"/><circle cx="362.633" cy="1639.701" r="4.047" fill-opacity=".214"/><circle cx="1093.097" cy="1315.861" r=".619" fill-opacity=".408"/><circle cx="1123.701" cy="755.208" r="2.903" fill-opacity=".212"/><circle cx="974.897" cy="855.378" r=".755" fill-opacity=".489"/><circle cx="445.542" cy="1310.471" r="2.663" fill-opacity=".234"/><circle cx="1529.505" cy="121.076" r="2.618" fill-opacity=".244"/><circle cx="1915.701" cy="1700.358" r="4.268" fill-opacity=".541"/><circle cx="338.868" cy="1432.681" r="3.445" fill-opacity=".139"/><circle cx="860.206" cy="1058.691" r="2.577" fill-opacity=".263"/><circle cx="1374.939" cy="135.87" r=".594" fill-opacity=".382"/><circle cx="1515.046" cy="579.006" r="1.164" fill-opacity=".472"/><circle cx="1467.63" cy="1140.997" r="1.586" fill-opacity=".479"/><circle cx="1184.287" cy="1744.568" r="3.111" fill-opacity=".597"/><circle cx="1157.198" cy="649.408" r="4.089" fill-opacity=".523"/><circle cx="162.977" cy="1989.052" r=".481" fill-opacity=".118"/><circle cx="854.75" cy="1552.94" r="1.154" fill-opacity=".583"/><circle cx="293.046" cy="120.578" r="4.082" fill-opacity=".413"/><circle cx="449.703" cy="882.397" r="1.763" fill-opacity=".33"/><circle cx="964.431" cy="1399.35" r="2.261" fill-opacity=".507"/><circle cx="2000.946" cy="159.174" r="3.938" fill-opacity=".151"/><circle cx="800.403" cy="1463.644" r="2.839" fill-opacity=".11"/><circle cx="632.196" cy="1367.75" r="3.766" fill-opacity=".338"/><circle cx="416.088" cy="797.587" r="4.456" fill-opacity=".278"/><circle cx="1944.67" cy="451.057" r="3.548" fill-opacity=".204"/><circle cx="1048.247" cy="134.753" r="4.524" fill-opacity=".259"/><circle cx="932.731" cy="581.84" r=".643" fill-opacity=".283"/><circle cx="1579.831" cy="335.826" r="4.461" fill-opacity=".511"/><circle cx="192.829" cy="1033.093" r="2.871" fill-opacity=".413"/><circle cx="537.44" cy="1161.805" r="3.581" fill-opacity=".13"/><circle cx="2010.863" cy="984.851" r="3.349" fill-opacity=".179"/><circle cx="1484.079" cy="1260.595" r=".825" fill-opacity=".163"/><circle cx="1309.874" cy="1431.137" r="4.617" fill-opacity=".441"/><circle cx="259.925" cy="1293.548" r=".648" fill-opacity=".567"/><circle cx="1132.756" cy="1099.478" r="1.283" fill-opacity=".368"/><circle cx="657.784" cy="604.541" r="4.717" fill-opacity=".189"/><circle cx="1668.25" cy="1174.396" r=".376" fill-opacity=".312"/><circle cx="231.973" cy="1243.471" r="1" fill-opacity=".154"/><circle cx="1785.735" cy="159.091" r="3.63" fill-opacity=".431"/><circle cx="1788.228" cy="504.88" r="1.3" fill-opacity=".551"/><circle cx="1847.846" cy="41.435" r="2.561" fill-opacity=".314"/><circle cx="1485.563" cy="983.314" r=".343" fill-opacity=".195"/><circle cx="693.794" cy="656.272" r="1.597" fill-opacity=".354"/><circle cx="1132.578" cy="1198.054" r=".496" fill-opacity=".389"/><circle cx="2004.306" cy="1333.194" r="3.101" fill-opacity=".6"/><circle cx="35.936" cy="818.629" r="2.103" fill-opacity=".149"/><circle cx="60.087" cy="1694.43" r="4.198" fill-opacity=".318"/><circle cx="1165.842" cy="1676.411" r="4.067" fill-opacity=".428"/><circle cx="628.626" cy="1461.408" r="3.975" fill-opacity=".421"/><circle cx="297.142" cy="1146.958" r="2.187" fill-opacity=".41"/><circle cx="1292.037" cy="77.287" r="1.19" fill-opacity=".595"/><circle cx="141.882" cy="729.247" r=".957" fill-opacity=".438"/><circle cx="465.48" cy="1897.029" r="1.368" fill-opacity=".126"/><circle cx="1476.899" cy="1835.042" r="2.209" fill-opacity=".4"/><circle cx="963.287" cy="1012.146" r="1.777" fill-opacity=".142"/><circle cx="1247.029" cy="1022.294" r="4.172" fill-opacity=".328"/><circle cx="483.001" cy="276.027" r=".46" fill-opacity=".208"/><circle cx="1206.145" cy="1146.328" r="1.344" fill-opacity=".424"/><circle cx="1636.062" cy="1518.844" r="1.392" fill-opacity=".305"/><circle cx="481.593" cy="50.42" r="2.874" fill-opacity=".514"/><circle cx="1937.84" cy="1271.719" r=".711" fill-opacity=".308"/><circle cx="1155.614" cy="410.029" r=".779" fill-opacity=".578"/><circle cx="993.679" cy="1912.683" r=".295" fill-opacity=".277"/><circle cx="975.248" cy="1440.976" r="4.018" fill-opacity=".21"/><circle cx="255.196" cy="1593.843" r=".36" fill-opacity=".164"/><circle cx="777.493" cy="712.417" r=".84" fill-opacity=".438"/><circle cx="1031.185" cy="1666.034" r=".438" fill-opacity=".568"/><circle cx="380.627" cy="357.265" r="2.792" fill-opacity=".386"/><circle cx="532.624" cy="1581.857" r="4.568" fill-opacity=".428"/><circle cx="419.694" cy="1878.789" r="2.689" fill-opacity=".599"/><circle cx="1445.527" cy="1263.458" r=".633" fill-opacity=".109"/><circle cx="1372.06" cy="137.854" r="3.004" fill-opacity=".225"/><circle cx="1415.186" cy="1800.456" r="2.362" fill-opacity=".325"/><circle cx="1257.114" cy="1946.523" r="3.517" fill-opacity=".154"/><circle cx="1202.826" cy="1527.351" r="3.772" fill-opacity=".214"/><circle cx="960.493" cy="1449.317" r=".649" fill-opacity=".109"/><circle cx="238.189" cy="1416.513" r="4.534" fill-opacity=".467"/><circle cx="1156.845" cy="185.404" r="1.994" fill-opacity=".46"/><circle cx="2015.647" cy="260.416" r="3.122" fill-opacity=".476"/><circle cx="1517.637" cy="1941.4" r=".618" fill-opacity=".407"/><circle cx="369.634" cy="542.896" r="2.539" fill-opacity=".479"/><circle cx="117.644" cy="818.863" r="4.332" fill-opacity=".392"/><circle cx="1019.775" cy="1.898" r="2.376" fill-opacity=".426"/><circle cx="803.802" cy="1090.882" r="4.411" fill-opacity=".549"/><circle cx="991.854" cy="152.086" r="4.133" fill-opacity=".475"/><circle cx="313.516" cy="961.852" r="4.472" fill-opacity=".427"/><circle cx="216.655" cy="1983.123" r=".37" fill-opacity=".563"/><circle cx="2001.046" cy="142.081" r="2.612" fill-opacity=".349"/><circle cx="1289.429" cy="716.2" r="1.288" fill-opacity=".253"/><circle cx="75.435" cy="657.121" r="3.483" fill-opacity=".137"/><circle cx="1705.111" cy="568.072" r="3.898" fill-opacity=".512"/><circle cx="1768.865" cy="100.302" r="4.447" fill-opacity=".109"/><circle cx="478.122" cy="782.737" r="3.056" fill-opacity=".333"/><circle cx="1695.275" cy="815.837" r="3.684" fill-opacity=".214"/><circle cx="1630.93" cy="1833.883" r="1.829" fill-opacity=".429"/><circle cx="6.821" cy="614.012" r="1.031" fill-opacity=".134"/><circle cx="1227.676" cy="1921.105" r="3.635" fill-opacity=".14"/><circle cx="102.037" cy="1247.963" r=".866" fill-opacity=".23"/><circle cx="1913.562" cy="320.528" r="4.37" fill-opacity=".216"/><circle cx="1018.299" cy="688.897" r="2.083" fill-opacity=".488"/><circle cx="611.583" cy="1885.324" r="1.158" fill-opacity=".282"/><circle cx="599.592" cy="1932.368" r="2.223" fill-opacity=".228"/><circle cx="1428.989" cy="29.053" r=".823" fill-opacity=".279"/><circle cx="1733.874" cy="1933.001" r="2.788" fill-opacity=".271"/><circle cx="1255.319" cy="1378.65" r="4.732" fill-opacity=".175"/><circle cx="1939.189" cy="817.117" r=".7" fill-opacity=".251"/><circle cx="107.035" cy="632.399" r="3.379" fill-opacity=".25"/><circle cx="136.324" cy="4.368" r="2.851" fill-opacity=".143"/><circle cx="911.649" cy="1311.855" r="4.315" fill-opacity=".53"/><circle cx="340.255" cy="1781.279" r="2.749" fill-opacity=".113"/><circle cx="626.806" cy="486.764" r="3.931" fill-opacity=".326"/></g></svg>